<svg width="700" height="700" viewBox="0 0 700 700" fill="none" xmlns="http://www.w3.org/2000/svg">
<rect width="700" height="700" fill="white"/>
<path d="M177 289.481L187.13 170H512.065L522.195 289.481H508.948C507.563 273.55 506.177 260.996 504.792 251.818C503.58 242.641 501.416 233.723 498.299 225.065C495.355 216.234 491.978 209.74 488.169 205.584C484.532 201.255 479.165 197.446 472.065 194.156C464.965 190.693 456.827 188.528 447.649 187.662C438.472 186.797 426.957 186.364 413.104 186.364C396.827 186.364 386.697 186.71 382.714 187.403C378.385 188.442 375.701 190.519 374.662 193.636C373.623 196.58 373.104 201.255 373.104 207.662V487.922C373.104 495.022 373.797 500.043 375.182 502.987C376.74 505.758 381.589 508.268 389.727 510.519C397.866 512.597 410.939 513.636 428.948 513.636H450.247V530C435.701 528.961 402.022 528.442 349.208 528.442C296.74 528.442 263.234 528.961 248.688 530V513.636H269.987C287.996 513.636 301.069 512.597 309.208 510.519C317.519 508.268 322.368 505.758 323.753 502.987C325.139 500.043 325.831 495.022 325.831 487.922V207.662C325.831 202.641 325.658 199.091 325.312 197.013C324.965 194.935 324.013 193.03 322.455 191.299C320.896 189.394 318.299 188.095 314.662 187.403C311.199 186.71 301.675 186.364 286.091 186.364C272.238 186.364 260.636 186.797 251.286 187.662C242.108 188.528 233.97 190.693 226.87 194.156C219.771 197.446 214.316 201.255 210.506 205.584C206.87 209.74 203.494 216.234 200.377 225.065C197.433 233.723 195.355 242.641 194.143 251.818C192.931 260.996 191.632 273.55 190.247 289.481H177Z" fill="black"/>
</svg>

